<?xml version="1.0" encoding="iso-8859-1"?>
<!-- Uploaded to: SVG Repo, www.svgrepo.com, Generator: SVG Repo Mixer Tools -->
<svg fill="#000000" height="800px" width="800px" version="1.1" id="Capa_1" xmlns="http://www.w3.org/2000/svg" xmlns:xlink="http://www.w3.org/1999/xlink" 
	 viewBox="0 0 49 49" xml:space="preserve">
<g>
	<g>
		<path d="M46.5,0h-22h-22c-0.553,0-1,0.448-1,1v27v10v10c0,0.552,0.447,1,1,1h44c0.553,0,1-0.448,1-1V38V28V1
			C47.5,0.448,47.053,0,46.5,0z M3.5,29h21h21v8h-42V29z M45.5,27h-20V2h20V27z M3.5,2h20v25h-20V2z M45.5,47h-42v-8h42V47z"/>
		<path d="M19.5,12c-1.654,0-3,1.346-3,3s1.346,3,3,3s3-1.346,3-3S21.154,12,19.5,12z M19.5,16c-0.552,0-1-0.449-1-1s0.448-1,1-1
			s1,0.449,1,1S20.052,16,19.5,16z"/>
		<path d="M29.5,18c1.654,0,3-1.346,3-3s-1.346-3-3-3s-3,1.346-3,3S27.846,18,29.5,18z M29.5,14c0.552,0,1,0.449,1,1s-0.448,1-1,1
			s-1-0.449-1-1S28.948,14,29.5,14z"/>
		<path d="M24.5,30c-1.654,0-3,1.346-3,3s1.346,3,3,3s3-1.346,3-3S26.154,30,24.5,30z M24.5,34c-0.552,0-1-0.449-1-1s0.448-1,1-1
			s1,0.449,1,1S25.052,34,24.5,34z"/>
		<path d="M24.5,46c1.654,0,3-1.346,3-3s-1.346-3-3-3s-3,1.346-3,3S22.846,46,24.5,46z M24.5,42c0.552,0,1,0.449,1,1s-0.448,1-1,1
			s-1-0.449-1-1S23.948,42,24.5,42z"/>
	</g>
</g>
</svg>